<svg width="16" height="16" viewBox="0 0 16 16" fill="none" xmlns="http://www.w3.org/2000/svg">
<g clip-path="url(#clip0_5998_10156)">
<path fill-rule="evenodd" clip-rule="evenodd" d="M14.9806 0.745877C15.1974 0.861889 15.3327 1.0878 15.3327 1.33366V12.0003C15.3327 12.2232 15.2213 12.4314 15.0358 12.555L11.0358 15.2217C10.8257 15.3618 10.5545 15.3711 10.3353 15.2458L5.99935 12.7682L1.66344 15.2458C1.45711 15.3637 1.20361 15.3629 0.998064 15.2436C0.792521 15.1243 0.666016 14.9046 0.666016 14.667V4.00033C0.666016 3.76109 0.794206 3.54019 1.00192 3.4215L5.66859 0.754831C5.87354 0.637714 6.12515 0.637714 6.33011 0.754831L10.639 3.21708L14.2962 0.77896C14.5008 0.642579 14.7638 0.629864 14.9806 0.745877ZM9.99935 4.38721L6.66602 2.48245V11.6134L9.99935 13.5182V4.38721ZM11.3327 13.4213L13.9993 11.6435V2.57934L11.3327 4.35712V13.4213ZM5.33268 11.6134V2.48245L1.99935 4.38721V13.5182L5.33268 11.6134Z" fill="#737373"/>
</g>
<defs>
<clipPath id="clip0_5998_10156">
<rect width="16" height="16" fill="white"/>
</clipPath>
</defs>
</svg>
